<svg data-logo="logo" xmlns="http://www.w3.org/2000/svg" viewBox="0 0 186 43">
        <g style="opacity: 1;" id="logogram" transform="translate(0, 1) rotate(0)"><path d="M0.452637 20.81C0.452637 9.76427 9.40694 0.809967 20.4526 0.809967H46.7026C57.7484 0.809967 66.7026 9.76427 66.7026 20.81V40.81H20.4526C9.40694 40.81 0.452637 31.8557 0.452637 20.81Z" fill="#6966FF"></path><path d="M46.7026 8.30997H20.4526C13.5491 8.30997 7.95264 13.9064 7.95264 20.81C7.95264 27.7135 13.5491 33.31 20.4526 33.31H46.7026C53.6062 33.31 59.2026 27.7135 59.2026 20.81C59.2026 13.9064 53.6062 8.30997 46.7026 8.30997Z" fill="#C2CCFF"></path><path d="M20.4526 27.06C23.9044 27.06 26.7026 24.2617 26.7026 20.81C26.7026 17.3582 23.9044 14.56 20.4526 14.56C17.0009 14.56 14.2026 17.3582 14.2026 20.81C14.2026 24.2617 17.0009 27.06 20.4526 27.06Z" fill="black"></path><path d="M17.9526 19.56C18.643 19.56 19.2026 19.0003 19.2026 18.31C19.2026 17.6196 18.643 17.06 17.9526 17.06C17.2623 17.06 16.7026 17.6196 16.7026 18.31C16.7026 19.0003 17.2623 19.56 17.9526 19.56Z" fill="white"></path><path d="M47.9526 27.06C51.4044 27.06 54.2026 24.2617 54.2026 20.81C54.2026 17.3582 51.4044 14.56 47.9526 14.56C44.5009 14.56 41.7026 17.3582 41.7026 20.81C41.7026 24.2617 44.5009 27.06 47.9526 27.06Z" fill="black"></path><path d="M45.4526 19.56C46.143 19.56 46.7026 19.0003 46.7026 18.31C46.7026 17.6196 46.143 17.06 45.4526 17.06C44.7623 17.06 44.2026 17.6196 44.2026 18.31C44.2026 19.0003 44.7623 19.56 45.4526 19.56Z" fill="white"></path></g>
        <g style="opacity: 1;" id="logotype" transform="translate(73, 8)"><path fill="#050505" d="M13.52 27L8.31 27L8.31 1.54L18.24 1.54Q21.14 1.54 23.18 2.64Q25.21 3.74 26.28 5.68Q27.35 7.62 27.35 10.13L27.35 10.13Q27.35 12.66 26.26 14.58Q25.17 16.51 23.12 17.59Q21.06 18.68 18.12 18.68L18.12 18.68L11.73 18.68L11.73 14.47L17.28 14.47Q18.89 14.47 19.92 13.92Q20.95 13.36 21.46 12.39Q21.96 11.41 21.96 10.13L21.96 10.13Q21.96 8.85 21.46 7.88Q20.95 6.90 19.91 6.37Q18.87 5.84 17.26 5.84L17.26 5.84L13.52 5.84L13.52 27ZM33.72 27L28.59 27L28.59 7.89L33.72 7.89L33.72 27ZM31.15 5.40L31.15 5.40Q29.99 5.40 29.17 4.63Q28.35 3.86 28.35 2.77L28.35 2.77Q28.35 1.67 29.17 0.90Q29.99 0.13 31.15 0.13L31.15 0.13Q32.32 0.13 33.15 0.90Q33.97 1.66 33.97 2.77L33.97 2.77Q33.97 3.86 33.15 4.63Q32.32 5.40 31.15 5.40ZM44.35 27.38L44.35 27.38Q41.46 27.38 39.36 26.14Q37.27 24.90 36.13 22.68Q35.00 20.47 35.00 17.53L35.00 17.53Q35.00 14.56 36.13 12.35Q37.27 10.13 39.36 8.89Q41.46 7.65 44.35 7.65L44.35 7.65Q46.04 7.65 47.47 8.10Q48.91 8.54 50.02 9.36Q51.13 10.18 51.85 11.36Q52.57 12.54 52.84 14.01L52.84 14.01L48.07 14.90Q47.92 14.15 47.59 13.56Q47.27 12.97 46.81 12.55Q46.35 12.13 45.74 11.91Q45.13 11.69 44.40 11.69L44.40 11.69Q43.03 11.69 42.10 12.42Q41.17 13.16 40.70 14.47Q40.23 15.79 40.23 17.52L40.23 17.52Q40.23 19.22 40.70 20.53Q41.17 21.84 42.10 22.59Q43.03 23.34 44.40 23.34L44.40 23.34Q45.13 23.34 45.75 23.11Q46.36 22.88 46.84 22.45Q47.32 22.01 47.64 21.39Q47.97 20.78 48.11 20.01L48.11 20.01L52.87 20.88Q52.60 22.40 51.88 23.59Q51.16 24.78 50.05 25.63Q48.94 26.49 47.50 26.93Q46.05 27.38 44.35 27.38ZM52.27 7.89L63.60 7.89L63.60 11.81L52.27 11.81L52.27 7.89ZM54.90 21.86L54.90 3.35L60.03 3.35L60.03 21.41Q60.03 22.32 60.43 22.75Q60.84 23.19 61.78 23.19L61.78 23.19Q62.07 23.19 62.60 23.11Q63.13 23.04 63.40 22.97L63.40 22.97L64.13 26.81Q63.28 27.07 62.43 27.17Q61.59 27.27 60.82 27.27L60.82 27.27Q57.95 27.27 56.43 25.87Q54.90 24.47 54.90 21.86L54.90 21.86ZM73.21 27.38L73.21 27.38Q70.34 27.38 68.23 26.14Q66.13 24.90 64.99 22.68Q63.86 20.47 63.86 17.53L63.86 17.53Q63.86 14.56 64.99 12.35Q66.13 10.13 68.23 8.89Q70.34 7.65 73.21 7.65L73.21 7.65Q76.09 7.65 78.19 8.89Q80.28 10.13 81.42 12.35Q82.55 14.56 82.55 17.53L82.55 17.53Q82.55 20.47 81.42 22.68Q80.28 24.90 78.19 26.14Q76.09 27.38 73.21 27.38ZM73.21 23.34L73.21 23.34Q74.57 23.34 75.50 22.58Q76.42 21.82 76.88 20.50Q77.34 19.17 77.34 17.52L77.34 17.52Q77.34 15.82 76.88 14.51Q76.42 13.19 75.50 12.44Q74.57 11.69 73.21 11.69L73.21 11.69Q71.84 11.69 70.92 12.44Q70.01 13.19 69.55 14.51Q69.09 15.82 69.09 17.52L69.09 17.52Q69.09 19.17 69.55 20.50Q70.01 21.82 70.92 22.58Q71.84 23.34 73.21 23.34ZM88.98 27L83.85 27L83.85 7.89L88.81 7.89L88.81 11.23L89.01 11.23Q89.54 9.45 90.78 8.54Q92.02 7.64 93.63 7.64L93.63 7.64Q94.02 7.64 94.47 7.68Q94.93 7.72 95.28 7.81L95.28 7.81L95.28 12.39Q94.94 12.27 94.29 12.20Q93.64 12.13 93.06 12.13L93.06 12.13Q91.90 12.13 90.96 12.64Q90.02 13.14 89.50 14.04Q88.98 14.93 88.98 16.13L88.98 16.13L88.98 27ZM101.16 27.38L101.16 27.38Q99.35 27.38 97.91 26.74Q96.46 26.09 95.63 24.82Q94.80 23.55 94.80 21.65L94.80 21.65Q94.80 20.06 95.39 18.98Q95.98 17.91 97.00 17.26Q98.02 16.61 99.31 16.27Q100.60 15.93 102.02 15.79L102.02 15.79Q103.67 15.62 104.69 15.47Q105.71 15.33 106.18 15.01Q106.65 14.70 106.65 14.08L106.65 14.08L106.65 13.99Q106.65 13.17 106.31 12.61Q105.96 12.05 105.30 11.75Q104.63 11.45 103.66 11.45L103.66 11.45Q102.66 11.45 101.93 11.75Q101.20 12.05 100.73 12.54Q100.27 13.04 100.05 13.65L100.05 13.65L95.35 12.87Q95.85 11.21 96.99 10.05Q98.14 8.88 99.84 8.27Q101.54 7.65 103.66 7.65L103.66 7.65Q105.21 7.65 106.66 8.02Q108.12 8.39 109.27 9.16Q110.42 9.93 111.10 11.16Q111.77 12.39 111.77 14.13L111.77 14.13L111.77 27L106.92 27L106.92 24.35L106.75 24.35Q106.29 25.24 105.52 25.91Q104.75 26.59 103.66 26.98Q102.58 27.38 101.16 27.38ZM102.61 23.77L102.61 23.77Q103.83 23.77 104.74 23.29Q105.66 22.81 106.17 21.99Q106.68 21.17 106.68 20.16L106.68 20.16L106.68 18.10Q106.46 18.27 106.00 18.40Q105.54 18.54 104.97 18.64Q104.41 18.75 103.86 18.83Q103.31 18.92 102.89 18.97L102.89 18.97Q101.95 19.10 101.23 19.41Q100.51 19.72 100.12 20.22Q99.73 20.73 99.73 21.51L99.73 21.51Q99.73 22.25 100.10 22.75Q100.48 23.26 101.12 23.51Q101.76 23.77 102.61 23.77Z"></path></g>
        
      </svg>